# xmcd CD database file
# Copyright (C) 1997 Ti Kan
#
# Track frame offsets:
#  182
#  14167
#  27277
#  43812
#  61170
#  75770
#  93787
#  131725
#  145232
#  162245
#  173792
#
# Disc length: 2509 seconds
#
# Revision: 1
# Processed by: cddbd v1.4b41PL1 Copyright (c) Steve Scherf et al.
# Submitted via: CDWizzard Release:4.22
#
DISCID=8709cb0b
DTITLE=America - Hat Trick
DYEAR=1900
DGENRE=
TTITLE0=Muskrat love
TTITLE1=Wind Wave
TTITLE2=She's gonna let you down
TTITLE3=Rainbow song
TTITLE4=Submarine ladies
TTITLE5=It's life
TTITLE6=Hat trick
TTITLE7=Molten love
TTITLE8=Green monkey
TTITLE9=Willow tree lullaby
TTITLE10=Goodbye
EXTD=Version japonesa
EXTT0=
EXTT1=
EXTT2=
EXTT3=
EXTT4=
EXTT5=
EXTT6=
EXTT7=
EXTT8=
EXTT9=
EXTT10=
PLAYORDER=
